<svg width="172" height="60" viewBox="0 0 172 60" fill="none" xmlns="http://www.w3.org/2000/svg">
<g clip-path="url(#clip0_345_2)">
<path fill-rule="evenodd" clip-rule="evenodd" d="M172 3C172 1.344 170.656 0 169 0H3.00022C1.34407 0 0 1.344 0 3V57C0 58.656 1.34407 60 3.00022 60H169C170.656 60 172 58.656 172 57V3Z" fill="#109AD6"/>
<path fill-rule="evenodd" clip-rule="evenodd" d="M172 3C172 1.344 170.656 0 169 0H3.00022C1.34407 0 0 1.344 0 3V57C0 58.656 1.34407 60 3.00022 60H169C170.656 60 172 58.656 172 57V3Z" fill="#5E66DF"/>
<path d="M81.5081 44.4758L80.4636 41.8505H73.9792L72.9347 44.4758H69.3443L75.4153 29.1912H79.0275L85.0985 44.4758H81.5081ZM75.0019 39.292H79.4409L77.2214 33.7298L75.0019 39.292Z" fill="white"/>
<path d="M92.1052 29.1912C93.7589 29.1912 95.2386 29.5249 96.5442 30.1701C97.8498 30.8153 98.8725 31.7275 99.6123 32.8844C100.33 34.0413 100.7 35.354 100.7 36.8224C100.7 38.2908 100.33 39.6034 99.6123 40.7604C98.8725 41.9395 97.8498 42.8517 96.5442 43.4969C95.2386 44.1421 93.7589 44.4758 92.1052 44.4758H86.7522V29.1912H92.1052ZM92.5186 41.4946C93.4543 41.4946 94.3029 41.2943 95.0427 40.8938C95.7826 40.4934 96.3701 39.9372 96.7835 39.2252C97.197 38.5355 97.3928 37.7346 97.3928 36.8224C97.3928 35.9324 97.197 35.1315 96.7835 34.4195C96.3701 33.7076 95.7826 33.1514 95.0427 32.7509C94.3029 32.3727 93.4543 32.1725 92.5186 32.1725H89.9509V41.4946H92.5186Z" fill="white"/>
<path d="M107.946 29.1912C109.6 29.1912 111.08 29.5249 112.385 30.1701C113.691 30.8153 114.714 31.7275 115.454 32.8844C116.172 34.0413 116.542 35.354 116.542 36.8224C116.542 38.2908 116.172 39.6034 115.454 40.7604C114.714 41.9395 113.691 42.8517 112.385 43.4969C111.08 44.1421 109.6 44.4758 107.946 44.4758H102.593V29.1912H107.946ZM108.36 41.4946C109.295 41.4946 110.144 41.2943 110.884 40.8938C111.624 40.4934 112.211 39.9372 112.625 39.2252C113.038 38.5355 113.234 37.7346 113.234 36.8224C113.234 35.9324 113.038 35.1315 112.625 34.4195C112.211 33.7076 111.624 33.1514 110.884 32.7509C110.144 32.3727 109.295 32.1725 108.36 32.1725H105.792V41.4946H108.36Z" fill="white"/>
<path d="M123.809 36.9781H117.847V39.737H123.809V36.9781Z" fill="white"/>
<path d="M133.058 44.7428C131.643 44.7428 130.338 44.3869 129.119 43.6527C127.901 42.9407 126.921 41.984 126.203 40.7604C125.485 39.5367 125.115 38.224 125.115 36.8224C125.115 35.4207 125.485 34.1081 126.203 32.8844C126.921 31.683 127.901 30.7263 129.119 29.9921C130.338 29.2802 131.643 28.9242 133.058 28.9242C134.472 28.9242 135.778 29.2802 136.996 29.9921C138.215 30.7263 139.194 31.683 139.912 32.8844C140.63 34.1081 141 35.4207 141 36.8224C141 38.224 140.63 39.5367 139.912 40.7604C139.194 41.984 138.215 42.9407 136.996 43.6527C135.778 44.3869 134.472 44.7428 133.058 44.7428ZM133.058 41.7615C133.885 41.7615 134.646 41.5391 135.364 41.0718C136.082 40.6269 136.648 40.0262 137.061 39.2697C137.475 38.5133 137.692 37.6901 137.692 36.8224C137.692 35.9547 137.475 35.1315 137.061 34.3751C136.648 33.6409 136.082 33.0402 135.364 32.5729C134.646 32.128 133.885 31.9055 133.058 31.9055C132.253 31.9055 131.491 32.128 130.773 32.5729C130.055 33.0402 129.467 33.6409 129.054 34.3973C128.64 35.1538 128.423 35.9547 128.423 36.8224C128.423 37.6901 128.64 38.5133 129.054 39.2697C129.467 40.0262 130.055 40.6269 130.773 41.0718C131.491 41.5391 132.253 41.7615 133.058 41.7615Z" fill="white"/>
<path d="M142.892 29.1912H146.091L153.315 39.0695V29.1912H156.514V44.4758H153.315L146.091 34.5975V44.4758H142.892V29.1912Z" fill="white"/>
<path d="M74.6539 20.031H78.9695V24.2033C78.4851 24.7286 77.8686 25.1338 77.1493 25.434C76.4154 25.7342 75.6814 25.8843 74.9475 25.8843C73.9934 25.8843 73.1126 25.6441 72.3053 25.1488C71.4833 24.6686 70.8374 24.0232 70.353 23.1977C69.8539 22.3723 69.6191 21.4868 69.6191 20.5413C69.6191 19.5957 69.8539 18.7102 70.353 17.8848C70.8374 17.0593 71.4833 16.4139 72.3053 15.9337C73.1126 15.4534 73.9934 15.2133 74.9475 15.2133C75.6961 15.2133 76.4301 15.3633 77.1493 15.6635C77.8686 15.9637 78.4851 16.3689 78.9695 16.8792L77.6631 18.1249C77.3548 17.7497 76.9438 17.4645 76.4447 17.2394C75.9457 17.0293 75.4466 16.9242 74.9475 16.9242C74.331 16.9242 73.7585 17.0893 73.2301 17.4195C72.687 17.7497 72.2613 18.1849 71.953 18.7402C71.6448 19.2956 71.4833 19.8959 71.4833 20.5413C71.4833 21.1866 71.6448 21.787 71.953 22.3423C72.2613 22.8976 72.687 23.3478 73.2301 23.678C73.7585 24.0082 74.331 24.1733 74.9475 24.1733C75.3291 24.1733 75.7255 24.1133 76.1218 23.9782C76.5035 23.8431 76.8704 23.663 77.1787 23.4229V21.5618H74.6539V20.031Z" fill="white"/>
<path d="M88.0851 17.1043H82.3309V19.5957H87.5419V21.3066H82.3309V23.9931H88.0851V25.7041H80.4961V15.3933H88.0851V17.1043Z" fill="white"/>
<path d="M92.3566 17.1043H89.1273V15.3933H97.4061V17.1043H94.1915V25.7041H92.3566V17.1043Z" fill="white"/>
<path d="M105.157 17.1043H101.927V15.3933H110.206V17.1043H106.992V25.7041H105.157V17.1043Z" fill="white"/>
<path d="M118.412 15.3933H120.232V25.7041H118.412V21.3066H113.377V25.7041H111.542V15.3933H113.377V19.5957H118.412V15.3933Z" fill="white"/>
<path d="M129.685 17.1043H123.931V19.5957H129.142V21.3066H123.931V23.9931H129.685V25.7041H122.096V15.3933H129.685V17.1043Z" fill="white"/>
<path d="M54.9744 22.5506C53.9847 20.17 51.9801 17.5998 50.406 16.7875C51.6871 19.299 52.4286 21.8183 52.7119 23.6986C52.7119 23.7023 52.7133 23.7114 52.7164 23.7365C50.1414 17.3184 45.7751 14.7304 42.2098 9.09547C42.0297 8.81054 41.8492 8.52486 41.6734 8.22372C41.5838 8.06993 41.5001 7.91273 41.4226 7.7526C41.2745 7.46662 41.1603 7.16435 41.0822 6.85185C41.0833 6.82134 41.0607 6.79471 41.0304 6.79083C41.0165 6.78685 41.0016 6.78685 40.9877 6.79083C40.9845 6.79196 40.9797 6.79566 40.9763 6.79699C40.9713 6.79898 40.965 6.80352 40.9597 6.80646C40.9622 6.80305 40.9675 6.79537 40.9691 6.79357C35.2487 10.1438 33.3081 16.3413 33.1298 19.4419C30.8458 19.599 28.6612 20.4408 26.8625 21.8571C26.6741 21.698 26.4772 21.5493 26.2726 21.4117C25.7536 19.5959 25.7316 17.6737 26.2087 15.8465C23.8694 16.9117 22.0499 18.5954 20.7271 20.0821H20.7166C19.8139 18.9387 19.8776 15.1669 19.929 14.3793C19.9182 14.3305 19.2556 14.7233 19.1688 14.7825C18.3722 15.3512 17.6275 15.9891 16.9433 16.689C16.1648 17.4785 15.4536 18.3315 14.8168 19.2392C14.8168 19.2403 14.8162 19.2416 14.8158 19.2428C14.8158 19.2415 14.8165 19.2403 14.8168 19.2392C13.3526 21.3142 12.314 23.659 11.7613 26.1379C11.7504 26.1872 11.7412 26.2384 11.7306 26.2881C11.6877 26.4886 11.5335 27.4915 11.5065 27.7095C11.5044 27.7262 11.5034 27.7424 11.5014 27.7591C11.302 28.796 11.1785 29.8461 11.1319 30.9009C11.1319 30.9398 11.1295 30.9783 11.1295 31.0172C11.1299 43.5925 21.3256 53.7865 33.902 53.7865C45.1651 53.7865 54.517 45.6102 56.3479 34.8704C56.3864 34.579 56.4173 34.286 56.4514 33.992C56.904 30.0871 56.4011 25.9827 54.9744 22.5506ZM28.7275 40.3736C28.8341 40.4245 28.9341 40.4801 29.0435 40.5289C29.048 40.532 29.0543 40.5355 29.0589 40.5384C28.9476 40.4851 28.8372 40.4302 28.7275 40.3736ZM52.7182 23.7421L52.7151 23.72C52.7163 23.728 52.7177 23.7365 52.7189 23.7445L52.7182 23.7421Z" fill="url(#paint0_linear_345_2)"/>
<path d="M54.9744 22.5506C53.9847 20.17 51.9801 17.5998 50.406 16.7875C51.6871 19.299 52.4286 21.8183 52.7119 23.6986C52.7119 23.6931 52.713 23.7031 52.7153 23.72C52.7165 23.728 52.7179 23.7365 52.7191 23.7445C54.8677 29.5692 53.6972 35.4922 52.0104 39.1115C49.401 44.7116 43.083 50.451 33.1942 50.171C22.51 49.8685 13.0976 41.9409 11.3405 31.5578C11.0204 29.9204 11.3405 29.089 11.5016 27.7596C11.3054 28.7845 11.2306 29.0805 11.1321 30.9014C11.1321 30.9403 11.1297 30.9788 11.1297 31.0177C11.1299 43.5925 21.3256 53.7865 33.902 53.7865C45.1651 53.7865 54.517 45.6103 56.3479 34.8705C56.3864 34.579 56.4173 34.286 56.4514 33.992C56.904 30.0871 56.4011 25.9828 54.9744 22.5506Z" fill="url(#paint1_radial_345_2)"/>
<path d="M54.9744 22.5506C53.9847 20.17 51.9801 17.5998 50.406 16.7875C51.6871 19.299 52.4286 21.8183 52.7119 23.6986C52.7119 23.6931 52.713 23.7031 52.7153 23.72C52.7165 23.728 52.7179 23.7365 52.7191 23.7445C54.8677 29.5692 53.6972 35.4922 52.0104 39.1115C49.401 44.7116 43.083 50.451 33.1942 50.171C22.51 49.8685 13.0976 41.9409 11.3405 31.5578C11.0204 29.9204 11.3405 29.089 11.5016 27.7596C11.3054 28.7845 11.2306 29.0805 11.1321 30.9014C11.1321 30.9403 11.1297 30.9788 11.1297 31.0177C11.1299 43.5925 21.3256 53.7865 33.902 53.7865C45.1651 53.7865 54.517 45.6103 56.3479 34.8705C56.3864 34.579 56.4173 34.286 56.4514 33.992C56.904 30.0871 56.4011 25.9828 54.9744 22.5506Z" fill="url(#paint2_radial_345_2)"/>
<path d="M43.908 25.2272C43.9576 25.262 44.0027 25.2967 44.0495 25.3314C43.478 24.3171 42.7663 23.3884 41.9355 22.5729C34.8567 15.495 40.0793 7.22606 40.96 6.8061C40.9626 6.80269 40.9679 6.79501 40.9695 6.79321C35.2491 10.1434 33.3085 16.3409 33.1302 19.4416C33.3955 19.4232 33.6601 19.4009 33.9301 19.4009C38.199 19.4009 41.917 21.748 43.908 25.2272Z" fill="url(#paint3_radial_345_2)"/>
<path d="M33.9444 26.6404C33.9072 27.2069 31.9059 29.1602 31.206 29.1602C24.7305 29.1602 23.6794 33.077 23.6794 33.077C23.9662 36.3754 26.2625 39.0916 29.0436 40.5288C29.1704 40.5944 29.2988 40.6536 29.4273 40.7122C29.6476 40.8097 29.8707 40.9009 30.0962 40.9857C31.0497 41.3233 32.0486 41.5159 33.0593 41.5571C44.4092 42.0895 46.6081 27.9887 38.4173 23.8939C40.5149 23.5291 42.6922 24.3727 43.9081 25.2268C41.9171 21.748 38.1991 19.4009 33.9303 19.4009C33.6603 19.4009 33.3958 19.4231 33.1304 19.4415C30.8464 19.5985 28.6618 20.4403 26.863 21.8567C27.2102 22.1504 27.6021 22.5431 28.4278 23.3565C29.9726 24.8789 33.936 26.4554 33.9444 26.6404Z" fill="url(#paint4_radial_345_2)"/>
<path d="M33.9444 26.6404C33.9072 27.2069 31.9059 29.1602 31.206 29.1602C24.7305 29.1602 23.6794 33.077 23.6794 33.077C23.9662 36.3754 26.2625 39.0916 29.0436 40.5288C29.1704 40.5944 29.2988 40.6536 29.4273 40.7122C29.6476 40.8097 29.8707 40.9009 30.0962 40.9857C31.0497 41.3233 32.0486 41.5159 33.0593 41.5571C44.4092 42.0895 46.6081 27.9887 38.4173 23.8939C40.5149 23.5291 42.6922 24.3727 43.9081 25.2268C41.9171 21.748 38.1991 19.4009 33.9303 19.4009C33.6603 19.4009 33.3958 19.4231 33.1304 19.4415C30.8464 19.5985 28.6618 20.4403 26.863 21.8567C27.2102 22.1504 27.6021 22.5431 28.4278 23.3565C29.9726 24.8789 33.936 26.4554 33.9444 26.6404Z" fill="url(#paint5_radial_345_2)"/>
<path d="M25.8008 21.0992C25.9595 21.2015 26.1167 21.3057 26.2728 21.4119C25.7538 19.5961 25.7318 17.6739 26.2089 15.8467C23.8696 16.9118 22.0501 18.5955 20.7273 20.0823C20.8368 20.0791 24.1399 20.0197 25.8008 21.0992Z" fill="url(#paint6_radial_345_2)"/>
<path d="M11.3405 31.5578C13.0976 41.941 22.5101 49.8685 33.1942 50.1711C43.083 50.451 49.401 44.7113 52.0104 39.1116C53.6971 35.4919 54.8677 29.5697 52.7191 23.7446L52.7184 23.7421L52.7153 23.72C52.713 23.7032 52.7115 23.6931 52.7119 23.6986C52.7119 23.7023 52.7133 23.7115 52.7164 23.7365C53.5241 29.0107 50.8412 34.1202 46.6472 37.575L46.6346 37.6047C38.4624 44.2587 30.6423 41.6193 29.0589 40.5389C28.9477 40.4853 28.8371 40.4303 28.7273 40.3737C23.9628 38.0968 21.9945 33.7562 22.4165 30.0336C18.3935 30.0336 17.0217 26.6405 17.0217 26.6405C17.0217 26.6405 20.6337 24.0651 25.3941 26.305C29.8031 28.3794 33.9437 26.6407 33.9442 26.6405C33.9358 26.4555 29.9723 24.879 28.4273 23.3566C27.6017 22.5433 27.2097 22.1511 26.8625 21.8568C26.6741 21.6977 26.4772 21.5491 26.2726 21.4115C26.1164 21.3056 25.9591 21.2013 25.8006 21.0988C24.1398 20.0193 20.8366 20.0788 20.7271 20.0816H20.7166C19.8139 18.9382 19.8775 15.1663 19.929 14.3788C19.9182 14.33 19.2556 14.7228 19.1688 14.782C18.3722 15.3506 17.6275 15.9886 16.9433 16.6885C16.1648 17.4782 15.4535 18.3314 14.8168 19.2392C14.8168 19.2404 14.8162 19.2417 14.8158 19.2428C14.8158 19.2416 14.8165 19.2404 14.8168 19.2392C13.3526 21.3143 12.314 23.6591 11.7612 26.1379C11.7504 26.1873 10.9416 29.7237 11.3405 31.5578Z" fill="url(#paint7_radial_345_2)"/>
<path d="M41.9355 22.5728C42.7663 23.3883 43.478 24.317 44.0495 25.3313C44.1748 25.4255 44.2919 25.5194 44.3913 25.611C49.5538 30.3678 46.8489 37.0954 46.6472 37.5749C50.8412 34.1201 53.5241 29.0106 52.7164 23.7364C50.1414 17.3184 45.7751 14.7304 42.2098 9.09547C42.0297 8.81054 41.8492 8.52486 41.6734 8.22372C41.5838 8.06993 41.5001 7.91273 41.4226 7.7526C41.2745 7.46662 41.1603 7.16435 41.0822 6.85185C41.0833 6.82134 41.0607 6.79471 41.0304 6.79083C41.0165 6.78685 41.0016 6.78685 40.9877 6.79083C40.9845 6.79196 40.9797 6.79566 40.9763 6.79699C40.9713 6.79898 40.965 6.80352 40.9597 6.80646C40.0793 7.22604 34.8567 15.495 41.9355 22.5728Z" fill="url(#paint8_radial_345_2)"/>
<path d="M44.3913 25.611C44.2919 25.5194 44.1748 25.4255 44.0494 25.3313C44.0031 25.2964 43.9576 25.2618 43.908 25.2271C42.6921 24.373 40.5148 23.5293 38.4172 23.8942C46.6079 27.9889 44.409 42.0897 33.0592 41.5574C32.0484 41.5162 31.0496 41.3235 30.0961 40.9859C29.8706 40.9011 29.6475 40.8099 29.4272 40.7124C29.2987 40.6539 29.1703 40.5947 29.0435 40.5291C29.048 40.5322 29.0543 40.5357 29.0589 40.5386C30.6423 41.6188 38.4624 44.2584 46.6346 37.6044L46.6472 37.5747C46.8489 37.0958 49.5538 30.3679 44.3913 25.611Z" fill="url(#paint9_radial_345_2)"/>
<path d="M23.6792 33.077C23.6792 33.077 24.7304 29.1603 31.2059 29.1603C31.9059 29.1603 33.9073 27.2069 33.9443 26.6404C33.9814 26.074 29.8035 28.3794 25.3942 26.3049C20.6338 24.0651 17.0218 26.6404 17.0218 26.6404C17.0218 26.6404 18.3936 30.0335 22.4166 30.0335C21.9947 33.7561 23.9629 38.0972 28.7273 40.3736C28.8338 40.4245 28.9339 40.4802 29.0433 40.529C26.2624 39.0916 23.9661 36.3754 23.6792 33.077Z" fill="url(#paint10_radial_345_2)"/>
<path d="M54.9744 22.5506C53.9847 20.17 51.9801 17.5998 50.406 16.7875C51.6871 19.299 52.4286 21.8183 52.7119 23.6986C52.7119 23.7023 52.7133 23.7114 52.7164 23.7365C50.1414 17.3184 45.7751 14.7304 42.2098 9.09547C42.0297 8.81054 41.8492 8.52486 41.6733 8.22372C41.5838 8.06993 41.5001 7.91273 41.4226 7.7526C41.2745 7.46662 41.1602 7.16435 41.0822 6.85185C41.0833 6.82134 41.0606 6.79471 41.0304 6.79083C41.0165 6.78685 41.0016 6.78685 40.9877 6.79083C40.9845 6.79196 40.9797 6.79566 40.9763 6.79699C40.9713 6.79898 40.9649 6.80352 40.9596 6.80646C40.9622 6.80305 40.9675 6.79537 40.9691 6.79357C35.2487 10.1438 33.3081 16.3413 33.1298 19.4419C33.3951 19.4236 33.6597 19.4013 33.9297 19.4013C38.1987 19.4013 41.9168 21.7484 43.9075 25.2273C42.6916 24.3731 40.5143 23.5295 38.4167 23.8943C46.6075 27.9891 44.4086 42.0899 33.0587 41.5575C32.048 41.5163 31.0491 41.3237 30.0956 40.9861C29.8701 40.9013 29.647 40.8101 29.4267 40.7126C29.2982 40.654 29.1699 40.5948 29.043 40.5293C29.0475 40.5324 29.0538 40.5359 29.0584 40.5387C28.9472 40.4852 28.8366 40.4301 28.7268 40.3736C28.8333 40.4245 28.9333 40.4801 29.0427 40.5289C26.2616 39.0916 23.9653 36.3754 23.6785 33.077C23.6785 33.077 24.7296 29.1603 31.2051 29.1603C31.9052 29.1603 33.9065 27.2069 33.9435 26.6404C33.9351 26.4555 29.9717 24.8789 28.4266 23.3566C27.601 22.5432 27.209 22.151 26.8618 21.8568C26.6734 21.6977 26.4765 21.549 26.2719 21.4114C25.753 19.5956 25.7309 17.6734 26.2081 15.8462C23.8687 16.9114 22.0492 18.5951 20.7265 20.0818H20.7159C19.8132 18.9384 19.8769 15.1666 19.9283 14.3791C19.9175 14.3303 19.2549 14.723 19.1681 14.7822C18.3715 15.3509 17.6268 15.9889 16.9427 16.6887C16.1644 17.4783 15.4533 18.3314 14.8168 19.2392C14.8168 19.2403 14.8162 19.2416 14.8158 19.2428C14.8158 19.2415 14.8164 19.2403 14.8168 19.2392C13.3526 21.3142 12.314 23.659 11.7612 26.1379C11.7503 26.1872 11.7412 26.2384 11.7305 26.2881C11.6877 26.4886 11.495 27.506 11.4681 27.7243C11.4701 27.7076 11.466 27.741 11.4681 27.7243C11.2923 28.7756 11.1802 29.8365 11.1323 30.9014C11.1323 30.9403 11.1299 30.9787 11.1299 31.0177C11.1299 43.5925 21.3256 53.7865 33.902 53.7865C45.1651 53.7865 54.517 45.6102 56.3479 34.8704C56.3864 34.579 56.4173 34.286 56.4513 33.992C56.904 30.0871 56.4011 25.9827 54.9744 22.5506ZM52.7153 23.72C52.7165 23.728 52.7179 23.7365 52.7191 23.7445L52.7184 23.7421L52.7153 23.72Z" fill="url(#paint11_linear_345_2)"/>
</g>
<defs>
<linearGradient id="paint0_linear_345_2" x1="50.8135" y1="14.0726" x2="15.4049" y2="50.5436" gradientUnits="userSpaceOnUse">
<stop stop-color="#FFF44F"/>
<stop offset="0.05" stop-color="#FFF44F"/>
<stop offset="0.37" stop-color="#FF980E"/>
<stop offset="0.53" stop-color="#FF3647"/>
<stop offset="0.7" stop-color="#E31587"/>
<stop offset="1" stop-color="#E31587"/>
</linearGradient>
<radialGradient id="paint1_radial_345_2" cx="0" cy="0" r="1" gradientUnits="userSpaceOnUse" gradientTransform="translate(50.9645 12.0146) scale(58.2181)">
<stop stop-color="#FFBD4F"/>
<stop offset="0.13" stop-color="#FFBD4F"/>
<stop offset="0.28" stop-color="#FF980E"/>
<stop offset="0.47" stop-color="#FF3750"/>
<stop offset="0.78" stop-color="#EB0878"/>
<stop offset="0.86" stop-color="#E50080"/>
<stop offset="1" stop-color="#E50080"/>
</radialGradient>
<radialGradient id="paint2_radial_345_2" cx="0" cy="0" r="1" gradientUnits="userSpaceOnUse" gradientTransform="translate(33.4628 31.625) scale(58.2181)">
<stop stop-color="#960E18"/>
<stop offset="0.3" stop-color="#960E18"/>
<stop offset="0.35" stop-color="#B11927" stop-opacity="0.74"/>
<stop offset="0.43" stop-color="#DB293D" stop-opacity="0.34"/>
<stop offset="0.5" stop-color="#F5334B" stop-opacity="0.09"/>
<stop offset="0.53" stop-color="#FF3750" stop-opacity="0"/>
<stop offset="1" stop-color="#FF3750" stop-opacity="0"/>
</radialGradient>
<radialGradient id="paint3_radial_345_2" cx="0" cy="0" r="1" gradientUnits="userSpaceOnUse" gradientTransform="translate(38.3714 4.56863) scale(25.9535 25.9535)">
<stop stop-color="#FFF44F"/>
<stop offset="0.13" stop-color="#FFF44F"/>
<stop offset="0.53" stop-color="#FF980E"/>
<stop offset="1" stop-color="#FF980E"/>
</radialGradient>
<radialGradient id="paint4_radial_345_2" cx="0" cy="0" r="1" gradientUnits="userSpaceOnUse" gradientTransform="translate(28.2834 43.8133) scale(22.1709 22.1709)">
<stop stop-color="#3A8EE6"/>
<stop offset="0.35" stop-color="#3A8EE6"/>
<stop offset="0.67" stop-color="#9059FF"/>
<stop offset="1" stop-color="#C139E6"/>
</radialGradient>
<radialGradient id="paint5_radial_345_2" cx="0" cy="0" r="1" gradientUnits="userSpaceOnUse" gradientTransform="translate(31.7398 26.7173) scale(11.7727 13.0808)">
<stop stop-color="#9059FF" stop-opacity="0"/>
<stop offset="0.21" stop-color="#9059FF" stop-opacity="0"/>
<stop offset="0.97" stop-color="#6E008B" stop-opacity="0.6"/>
<stop offset="1" stop-color="#6E008B" stop-opacity="0.6"/>
</radialGradient>
<radialGradient id="paint6_radial_345_2" cx="0" cy="0" r="1" gradientUnits="userSpaceOnUse" gradientTransform="translate(32.3728 10.2815) scale(16.1391 16.1391)">
<stop stop-color="#FFE226"/>
<stop offset="0.1" stop-color="#FFE226"/>
<stop offset="0.79" stop-color="#FF7139"/>
<stop offset="1" stop-color="#FF7139"/>
</radialGradient>
<radialGradient id="paint7_radial_345_2" cx="0" cy="0" r="1" gradientUnits="userSpaceOnUse" gradientTransform="translate(47.06 -0.305949) scale(76.7785 76.7785)">
<stop stop-color="#FFF44F"/>
<stop offset="0.11" stop-color="#FFF44F"/>
<stop offset="0.46" stop-color="#FF980E"/>
<stop offset="0.72" stop-color="#FF3647"/>
<stop offset="0.9" stop-color="#E31587"/>
<stop offset="1" stop-color="#E31587"/>
</radialGradient>
<radialGradient id="paint8_radial_345_2" cx="0" cy="0" r="1" gradientUnits="userSpaceOnUse" gradientTransform="translate(40.6418 1.04343) scale(107.386 107.386)">
<stop stop-color="#FFF44F"/>
<stop offset="0.3" stop-color="#FF980E"/>
<stop offset="0.57" stop-color="#FF3647"/>
<stop offset="0.74" stop-color="#E31587"/>
<stop offset="1" stop-color="#E31587"/>
</radialGradient>
<radialGradient id="paint9_radial_345_2" cx="0" cy="0" r="1" gradientUnits="userSpaceOnUse" gradientTransform="translate(32.5382 16.0863) scale(44.0821 44.0821)">
<stop stop-color="#FFF44F"/>
<stop offset="0.14" stop-color="#FFF44F"/>
<stop offset="0.48" stop-color="#FF980E"/>
<stop offset="0.66" stop-color="#FF3647"/>
<stop offset="0.9" stop-color="#E31587"/>
<stop offset="1" stop-color="#E31587"/>
</radialGradient>
<radialGradient id="paint10_radial_345_2" cx="0" cy="0" r="1" gradientUnits="userSpaceOnUse" gradientTransform="translate(43.9798 18.6192) scale(52.9852 52.9852)">
<stop stop-color="#FFF44F"/>
<stop offset="0.09" stop-color="#FFF44F"/>
<stop offset="0.63" stop-color="#FF980E"/>
<stop offset="1" stop-color="#FF980E"/>
</radialGradient>
<linearGradient id="paint11_linear_345_2" x1="47.5161" y1="13.3676" x2="19.3168" y2="46.2667" gradientUnits="userSpaceOnUse">
<stop stop-color="#FFF44F" stop-opacity="0.8"/>
<stop offset="0.17" stop-color="#FFF44F" stop-opacity="0.8"/>
<stop offset="0.6" stop-color="#FFF44F" stop-opacity="0"/>
<stop offset="1" stop-color="#FFF44F" stop-opacity="0"/>
</linearGradient>
<clipPath id="clip0_345_2">
<rect width="172" height="60" fill="white"/>
</clipPath>
</defs>
</svg>
